<svg xmlns="http://www.w3.org/2000/svg" width="169" height="162" viewBox="0 0 169 162"><defs><style>.a{fill:#fff;}</style></defs><g transform="translate(-690 -369)"><rect class="a" width="35" height="35" rx="10" transform="translate(690 369)"/><rect class="a" width="35" height="35" rx="10" transform="translate(690 419)"/><rect class="a" width="35" height="35" rx="10" transform="translate(690 469)"/><rect class="a" width="35" height="35" rx="10" transform="translate(740 369)"/><rect class="a" width="35" height="35" rx="10" transform="translate(740 419)"/><rect class="a" width="35" height="35" rx="10" transform="translate(740 469)"/><rect class="a" width="35" height="35" rx="10" transform="translate(790 369)"/><rect class="a" width="35" height="35" rx="10" transform="translate(790 419)"/><rect class="a" width="35" height="35" rx="10" transform="translate(790 469)"/><rect class="a" width="146" height="141" rx="17" transform="translate(713 390)"/><g transform="translate(-284 -36)"><path class="a" d="M274.5,22a44.221,44.221,0,0,1-17.321-3.5,44.351,44.351,0,0,1-14.145-9.537A44.351,44.351,0,0,1,233.5-5.179,44.22,44.22,0,0,1,230-22.5a44.22,44.22,0,0,1,3.5-17.321,44.352,44.352,0,0,1,9.537-14.145A44.352,44.352,0,0,1,257.179-63.5,44.221,44.221,0,0,1,274.5-67a44.221,44.221,0,0,1,17.321,3.5,44.351,44.351,0,0,1,14.145,9.537A44.351,44.351,0,0,1,315.5-39.821,44.22,44.22,0,0,1,319-22.5a44.22,44.22,0,0,1-3.5,17.321,44.351,44.351,0,0,1-9.537,14.145A44.351,44.351,0,0,1,291.821,18.5,44.221,44.221,0,0,1,274.5,22ZM254.439-26.5a4.194,4.194,0,0,0-4.189,4.19,4.194,4.194,0,0,0,4.189,4.189H270.5v16.06a4.2,4.2,0,0,0,4.19,4.189,4.194,4.194,0,0,0,4.19-4.189v-16.06h16.06a4.194,4.194,0,0,0,4.189-4.189,4.194,4.194,0,0,0-4.189-4.19h-16.06V-42.562a4.194,4.194,0,0,0-4.19-4.189,4.2,4.2,0,0,0-4.19,4.189V-26.5Z" transform="translate(796 519)"/></g></g></svg>