<svg xmlns="http://www.w3.org/2000/svg" width="185.55" height="184.051" viewBox="0 0 185.55 184.051"><defs><style>.a{fill:rgba(255,0,0,0.09);}.b{fill:rgba(255,0,0,0.16);}.c{fill:rgba(255,0,0,0.11);}.d{fill:rgba(255,0,0,0.29);}.e{fill:rgba(255,0,0,0.35);}.f{fill:rgba(255,0,0,0.22);}.g{fill:rgba(255,0,0,0.34);}.h{fill:red;}.i{fill:rgba(255,0,0,0.23);}.j{fill:rgba(255,0,0,0.1);}.k{fill:rgba(255,0,0,0.24);}.l{fill:rgba(255,0,0,0.42);}.m{fill:rgba(255,0,0,0.3);}.n{fill:rgba(255,0,0,0.78);}</style></defs><g transform="translate(-420.398 -426.53)"><rect class="a" width="33.614" height="33.614" transform="translate(533.344 501.749)"/><rect class="b" width="33.614" height="33.614" transform="translate(533.344 426.53)"/><rect class="c" width="33.614" height="33.614" transform="translate(533.344 464.14)"/><rect class="d" width="33.614" height="33.614" transform="translate(533.344 539.358)"/><rect class="e" width="33.614" height="33.614" transform="translate(533.344 576.967)"/><rect class="f" width="33.614" height="33.614" transform="translate(495.694 539.358)"/><rect class="g" width="33.614" height="33.614" transform="translate(495.694 576.967)"/><rect class="h" width="33.614" height="33.614" transform="translate(495.694 426.53)"/><rect class="h" width="33.614" height="33.614" transform="translate(495.694 501.749)"/><rect class="h" width="33.614" height="33.614" transform="translate(495.694 464.139)"/><rect class="i" width="33.614" height="33.614" transform="translate(572.334 539.358)"/><rect class="g" width="33.614" height="33.614" transform="translate(572.334 576.967)"/><rect class="h" width="33.614" height="33.614" transform="translate(572.334 426.53)"/><rect class="h" width="33.614" height="33.614" transform="translate(572.334 501.749)"/><rect class="h" width="33.614" height="33.614" transform="translate(572.334 464.139)"/><rect class="j" width="33.614" height="33.614" transform="translate(420.398 539.358)"/><rect class="c" width="33.614" height="33.614" transform="translate(420.398 576.967)"/><rect class="k" width="33.614" height="33.614" transform="translate(420.398 426.53)"/><rect class="g" width="33.614" height="33.614" transform="translate(420.398 501.749)"/><rect class="l" width="33.614" height="33.614" transform="translate(420.398 464.139)"/><rect class="m" width="33.614" height="33.614" transform="translate(458.047 501.749)"/><rect class="n" width="33.614" height="33.614" transform="translate(458.047 426.53)"/><rect class="l" width="33.614" height="33.614" transform="translate(458.047 464.14)"/><rect class="h" width="33.614" height="33.614" transform="translate(458.047 539.358)"/><rect class="h" width="33.614" height="33.614" transform="translate(458.047 576.967)"/></g></svg>