<svg xmlns="http://www.w3.org/2000/svg" width="45.571" height="46" viewBox="0 0 45.571 46"><defs><style>.a{fill:#3f4f75;}.a,.b,.c{fill-rule:evenodd;}.b{fill:#80cfbe;}.c{fill:#fff;}</style></defs><path class="a" d="M41.909,46H3.66A3.723,3.723,0,0,1,0,42.22V3.78A3.722,3.722,0,0,1,3.661,0H41.91a3.722,3.722,0,0,1,3.661,3.78V42.22A3.723,3.723,0,0,1,41.91,46"/><path class="b" d="M11.383,17.956a1.263,1.263,0,0,1,.153.26,1.148,1.148,0,0,0-.433-.243.25.25,0,0,0-.169-.147l-.022,0q-.031-.042-.065-.081a2.319,2.319,0,0,1,.536.215m-1.368,1.867a1.2,1.2,0,0,0,.344-.071c.021.025.044.051.068.075a1.051,1.051,0,0,1-.436.027l.024-.03m.448-1.4a.62.62,0,0,0,.143.047.838.838,0,0,1,.007.107.258.258,0,0,0-.337-.052l-.02-.08.164-.05a.265.265,0,0,0,.043.028m-.717.143a1.1,1.1,0,0,0,.063.247.312.312,0,0,1-.063-.247m1.412.65-.068-.133a.8.8,0,0,0,.055-.122.456.456,0,0,1,.013.255m.718-1.553q-.055-.038-.112-.074a2.06,2.06,0,0,0-.44-.431,1.619,1.619,0,0,0-2.338.252,1.287,1.287,0,0,0-.072.126,2,2,0,0,0-.652,1.15.251.251,0,0,0-.176.242,1.4,1.4,0,0,0,.636,1.2,2.452,2.452,0,0,0,1.573.52,1.739,1.739,0,0,0,1.716-1.07l.01-.013a1.292,1.292,0,0,0-.145-1.9m-.493-7.283a1.263,1.263,0,0,1,.153.26A1.142,1.142,0,0,0,11.1,10.4a.247.247,0,0,0-.169-.147l-.022-.005q-.031-.042-.065-.08a2.234,2.234,0,0,1,.536.215m-1.368,1.867a1.167,1.167,0,0,0,.344-.072.959.959,0,0,0,.068.075,1.02,1.02,0,0,1-.436.028l.024-.031m.448-1.394a.643.643,0,0,0,.143.046.833.833,0,0,1,.007.108.257.257,0,0,0-.337-.052l-.02-.08.164-.05a.265.265,0,0,0,.043.028M9.746,11a.863.863,0,0,0,.019.1c.012.05.027.1.044.149A.313.313,0,0,1,9.746,11m1.412.65-.068-.132a.83.83,0,0,0,.055-.122.453.453,0,0,1,.013.254m.718-1.552q-.055-.039-.112-.075a2.048,2.048,0,0,0-.44-.43,1.618,1.618,0,0,0-2.338.252,1.4,1.4,0,0,0-.072.125,2,2,0,0,0-.652,1.15.251.251,0,0,0-.176.242,1.4,1.4,0,0,0,.636,1.2,2.464,2.464,0,0,0,1.573.52,1.739,1.739,0,0,0,1.716-1.07l.01-.013a1.292,1.292,0,0,0-.145-1.9M28.02,17.956a1.263,1.263,0,0,1,.153.26,1.148,1.148,0,0,0-.433-.243.25.25,0,0,0-.169-.147l-.022,0q-.031-.042-.065-.081a2.3,2.3,0,0,1,.536.215m-1.368,1.867A1.2,1.2,0,0,0,27,19.752c.022.025.044.051.068.075a1.051,1.051,0,0,1-.436.027l.024-.03m.448-1.4a.62.62,0,0,0,.144.047.838.838,0,0,1,.006.107.258.258,0,0,0-.337-.052l-.02-.08.164-.05a.265.265,0,0,0,.043.028m-.717.143a1.1,1.1,0,0,0,.063.247.312.312,0,0,1-.063-.247m1.412.65-.068-.133a.8.8,0,0,0,.056-.122.464.464,0,0,1,.012.255m.718-1.553L28.4,17.6a2.06,2.06,0,0,0-.441-.431,1.619,1.619,0,0,0-2.338.252c-.025.04-.05.082-.072.126a1.994,1.994,0,0,0-.652,1.15.251.251,0,0,0-.176.242,1.4,1.4,0,0,0,.636,1.2,2.454,2.454,0,0,0,1.573.52,1.739,1.739,0,0,0,1.716-1.07l.01-.013a1.292,1.292,0,0,0-.145-1.9m-.493-7.283a1.263,1.263,0,0,1,.153.26,1.142,1.142,0,0,0-.433-.243.247.247,0,0,0-.169-.147l-.022-.005q-.031-.042-.065-.08a2.217,2.217,0,0,1,.536.215m-1.368,1.867A1.167,1.167,0,0,0,27,12.181c.022.026.044.051.068.075a1.02,1.02,0,0,1-.436.028l.024-.031m.448-1.394a.643.643,0,0,0,.144.046.833.833,0,0,1,.006.108.257.257,0,0,0-.337-.052l-.02-.08.164-.05a.265.265,0,0,0,.043.028M26.383,11a1.66,1.66,0,0,0,.063.247A.31.31,0,0,1,26.383,11m1.412.65-.068-.132a.956.956,0,0,0,.056-.122.461.461,0,0,1,.012.254m.718-1.552q-.055-.039-.111-.075a2.048,2.048,0,0,0-.441-.43,1.618,1.618,0,0,0-2.338.252c-.025.04-.05.082-.072.125a1.994,1.994,0,0,0-.652,1.15.251.251,0,0,0-.176.242,1.4,1.4,0,0,0,.636,1.2,2.466,2.466,0,0,0,1.573.52,1.739,1.739,0,0,0,1.716-1.07l.01-.013a1.292,1.292,0,0,0-.145-1.9"/><path class="c" d="M10.656,24.81a2.038,2.038,0,0,0-2.02,2.056v8.221a2.02,2.02,0,1,0,4.04,0V26.866a2.037,2.037,0,0,0-2.02-2.055m16.162,0a2.038,2.038,0,0,0-2.02,2.056v8.221a2.02,2.02,0,1,0,4.04,0V26.866a2.038,2.038,0,0,0-2.02-2.055M18.737,16.59a2.037,2.037,0,0,0-2.02,2.054V35.087a2.02,2.02,0,1,0,4.04,0V18.644a2.037,2.037,0,0,0-2.02-2.055m16.162,0a2.037,2.037,0,0,0-2.02,2.054V35.087a2.02,2.02,0,1,0,4.04,0V18.644a2.038,2.038,0,0,0-2.02-2.055"/><path class="b" d="M36.174,12.043a1.089,1.089,0,0,1-.416.394,3.561,3.561,0,0,0,.283-.546q.03-.062.056-.126a.224.224,0,0,0,.075-.227.038.038,0,0,0,0-.01.731.731,0,0,0,.248-.455l.021-.033a1.765,1.765,0,0,1-.27,1m-2.656-.673a2.518,2.518,0,0,1-.009-.257,4.861,4.861,0,0,0,.32.837,2.011,2.011,0,0,0,.274.53,1.13,1.13,0,0,1-.165-.127,1.526,1.526,0,0,1-.42-.983m1.384-.4a3.725,3.725,0,0,1,.01-.564.547.547,0,0,1,.073.036l.039.027c.034.178.023.421-.122.5m1.823-.785a.407.407,0,0,0-.16-.31,2.293,2.293,0,0,0-.682-.717c-.383-.255-.815-.38-1.085-.047q-.152-.014-.3-.015a1.052,1.052,0,0,0-.173.012c-.322-.127-.666-.13-.815.282a1.743,1.743,0,0,0-.093.507.7.7,0,0,0-.158.164,2.393,2.393,0,0,0-.144,1.74,1.64,1.64,0,0,0,1.9,1.27.462.462,0,0,0,.184-.074,1.275,1.275,0,0,0,1.243-.507,2.239,2.239,0,0,0,.284-2.305M20.018,12.043a1.091,1.091,0,0,1-.417.394,3.561,3.561,0,0,0,.284-.546c.02-.041.038-.083.055-.126a.226.226,0,0,0,.076-.227l0-.01a.736.736,0,0,0,.248-.455l.02-.033a1.758,1.758,0,0,1-.27,1m-2.655-.673a2.518,2.518,0,0,1-.01-.257,4.944,4.944,0,0,0,.32.837,1.984,1.984,0,0,0,.275.53,1.13,1.13,0,0,1-.165-.127,1.521,1.521,0,0,1-.42-.983m1.384-.4a3.665,3.665,0,0,1,.01-.564.6.6,0,0,1,.072.036.469.469,0,0,1,.04.027c.033.178.022.421-.122.5m1.822-.785a.407.407,0,0,0-.159-.31,2.293,2.293,0,0,0-.683-.717c-.382-.255-.815-.38-1.084-.047q-.152-.014-.3-.015a1.044,1.044,0,0,0-.173.012c-.323-.127-.667-.13-.816.282a1.758,1.758,0,0,0-.093.507.7.7,0,0,0-.158.164,2.4,2.4,0,0,0-.144,1.74,1.641,1.641,0,0,0,1.9,1.27.462.462,0,0,0,.184-.074,1.276,1.276,0,0,0,1.243-.507,2.241,2.241,0,0,0,.283-2.305"/></svg>