<svg xmlns="http://www.w3.org/2000/svg" width="12.25" height="14" viewBox="0 0 12.25 14"><defs><style>.a{fill:#fff;}</style></defs><path class="a" d="M.875,12.687A1.312,1.312,0,0,0,2.187,14h7.875a1.312,1.312,0,0,0,1.313-1.312V3.5H.875Zm7.437-7a.437.437,0,1,1,.875,0v6.125a.437.437,0,1,1-.875,0Zm-2.625,0a.438.438,0,0,1,.875,0v6.125a.437.437,0,1,1-.875,0Zm-2.625,0a.437.437,0,1,1,.875,0v6.125a.437.437,0,1,1-.875,0ZM11.812.875H8.531L8.274.364A.656.656,0,0,0,7.686,0H4.561a.649.649,0,0,0-.585.364L3.719.875H.437A.437.437,0,0,0,0,1.312v.875a.437.437,0,0,0,.437.437H11.812a.438.438,0,0,0,.438-.437V1.312A.438.438,0,0,0,11.812.875Z"/></svg>