<svg xmlns="http://www.w3.org/2000/svg" width="179" height="238.5" viewBox="0 0 179 238.5"><defs><style>.a{fill:#2256f2;}.b{fill:#497bf5;}.c{fill:#608bf6;}</style></defs><g transform="translate(-736 -381.5)"><g transform="translate(45 -23.5)"><path class="a" d="M0,.253,45-23.135V33.478L0,56.865Z" transform="translate(825 563.135)"/><path class="b" d="M45,.253,0-23.135V33.478L45,56.865Z" transform="translate(780 563.135)"/><path class="c" d="M0,23.5,45,0,90,23.5,45,47Z" transform="translate(780 516.5)"/></g><g transform="translate(-44 -23)"><path class="a" d="M0,.253,45-23.135V33.478L0,56.865Z" transform="translate(825 563.135)"/><path class="b" d="M45,.253,0-23.135V33.478L45,56.865Z" transform="translate(780 563.135)"/><path class="c" d="M0,23.5,45,0,90,23.5,45,47Z" transform="translate(780 516.5)"/></g><g transform="translate(-44 -79)"><path class="a" d="M0,.253,45-23.135V33.478L0,56.865Z" transform="translate(825 563.135)"/><path class="b" d="M45,.253,0-23.135V33.478L45,56.865Z" transform="translate(780 563.135)"/><path class="c" d="M0,23.5,45,0,90,23.5,45,47Z" transform="translate(780 516.5)"/></g><g transform="translate(45 -79)"><path class="a" d="M0,.253,45-23.135V33.478L0,56.865Z" transform="translate(825 563.135)"/><path class="b" d="M45,.253,0-23.135V33.478L45,56.865Z" transform="translate(780 563.135)"/><path class="c" d="M0,23.5,45,0,90,23.5,45,47Z" transform="translate(780 516.5)"/></g><g transform="translate(45 -135)"><path class="a" d="M0,.253,45-23.135V33.478L0,56.865Z" transform="translate(825 563.135)"/><path class="b" d="M45,.253,0-23.135V33.478L45,56.865Z" transform="translate(780 563.135)"/><path class="c" d="M0,23.5,45,0,90,23.5,45,47Z" transform="translate(780 516.5)"/></g><path class="a" d="M0,.253,45-23.135V33.478L0,56.865Z" transform="translate(825 563.135)"/><path class="b" d="M45,.253,0-23.135V33.478L45,56.865Z" transform="translate(780 563.135)"/><path class="c" d="M0,23.5,45,0,90,23.5,45,47Z" transform="translate(780 516.5)"/></g></svg>