<svg xmlns="http://www.w3.org/2000/svg" width="88.999" height="88.999" viewBox="0 0 88.999 88.999"><defs><style>.a{fill:#f8f9fa;}</style></defs><g transform="translate(-1026 -452)"><path class="a" d="M274.5,22a44.221,44.221,0,0,1-17.321-3.5,44.351,44.351,0,0,1-14.145-9.537A44.351,44.351,0,0,1,233.5-5.179,44.22,44.22,0,0,1,230-22.5a44.22,44.22,0,0,1,3.5-17.321,44.352,44.352,0,0,1,9.537-14.145A44.352,44.352,0,0,1,257.179-63.5,44.221,44.221,0,0,1,274.5-67a44.221,44.221,0,0,1,17.321,3.5,44.351,44.351,0,0,1,14.145,9.537A44.351,44.351,0,0,1,315.5-39.821,44.22,44.22,0,0,1,319-22.5a44.22,44.22,0,0,1-3.5,17.321,44.351,44.351,0,0,1-9.537,14.145A44.351,44.351,0,0,1,291.821,18.5,44.221,44.221,0,0,1,274.5,22ZM254.439-26.5a4.194,4.194,0,0,0-4.189,4.19,4.194,4.194,0,0,0,4.189,4.189H270.5v16.06a4.2,4.2,0,0,0,4.19,4.189,4.194,4.194,0,0,0,4.19-4.189v-16.06h16.06a4.194,4.194,0,0,0,4.189-4.189,4.194,4.194,0,0,0-4.189-4.19h-16.06V-42.562a4.194,4.194,0,0,0-4.19-4.189,4.2,4.2,0,0,0-4.19,4.189V-26.5Z" transform="translate(796 519)"/></g></svg>