<?xml version="1.0" encoding="utf-8"?>
<!-- Generator: Adobe Illustrator 22.1.0, SVG Export Plug-In . SVG Version: 6.00 Build 0)  -->
<svg version="1.1" id="Layer_1" xmlns="http://www.w3.org/2000/svg" xmlns:xlink="http://www.w3.org/1999/xlink" x="0px" y="0px"
	 viewBox="0 0 222 38" style="enable-background:new 0 0 222 38;" xml:space="preserve">
<style type="text/css">
	.st0{fill:#0000FF;}
</style>
<path class="st0" d="M17.9,12.4c-1.5-1.9-3.9-3-6.8-3c-2.7,0-4.9,0.9-6.5,2.5c-1.6,1.7-2.4,4.1-2.4,6.9c0,2.9,0.8,5.3,2.4,7
	c1.6,1.6,3.7,2.5,6.5,2.5c4.6,0,7.6-2.1,8.5-6.2l-4.1-0.3c-0.4,2.2-1.8,3.3-4.4,3.3c-3,0-4.5-1.7-4.6-5h13.4
	C20,17,19.3,14.2,17.9,12.4z M11.1,12.6c1.6,0,2.7,0.4,3.5,1.4c0.6,0.8,0.9,1.8,1,2.8h-9C6.6,16,6.9,15,7.5,14.2
	C8.2,13.2,9.4,12.6,11.1,12.6z"/>
<path class="st0" d="M33.3,9.4c-3,0.1-5.1,1.5-5.8,3.7V9.9h-4.3v18h4.3v-8.3c0-5,2.1-6.3,5.5-6.3c0.3,0,0.6,0,0.9,0L34,9.4H33.3z"/>
<path class="st0" d="M48,27.9h4.9l-7.3-11.3l7.1-6.7h-5.5l-6.4,6.6V2.7h-4.3v25.2h4.3v-6.7l2-1.8L48,27.9z"/>
<path class="st0" d="M69,12.4c-1.5-1.9-3.9-3-6.8-3c-2.7,0-4.9,0.9-6.5,2.5c-1.6,1.7-2.4,4.1-2.4,6.9c0,2.9,0.8,5.3,2.4,7
	c1.6,1.6,3.7,2.5,6.5,2.5c4.6,0,7.6-2.1,8.5-6.2l-4.1-0.3c-0.4,2.2-1.8,3.3-4.4,3.3c-3,0-4.5-1.7-4.6-5h13.4
	C71.2,17,70.5,14.2,69,12.4z M62.3,12.6c1.6,0,2.7,0.4,3.5,1.4c0.6,0.8,0.9,1.8,1,2.8h-9c0.1-0.9,0.3-1.8,0.9-2.6
	C59.3,13.2,60.6,12.6,62.3,12.6z"/>
<path class="st0" d="M74.4,27.9h4.3V2.7h-4.3V27.9z"/>
<path class="st0" d="M97.7,12.4c-1.5-1.9-3.9-3-6.8-3c-2.7,0-4.9,0.9-6.5,2.5c-1.6,1.7-2.4,4.1-2.4,6.9c0,2.9,0.8,5.3,2.4,7
	c1.6,1.6,3.7,2.5,6.5,2.5c4.6,0,7.6-2.1,8.5-6.2l-4.1-0.3c-0.4,2.2-1.8,3.3-4.4,3.3c-3,0-4.5-1.7-4.6-5h13.4
	C99.9,17,99.2,14.2,97.7,12.4z M90.9,12.6c1.6,0,2.7,0.4,3.5,1.4c0.6,0.8,0.9,1.8,1,2.8h-9c0.1-0.9,0.3-1.8,0.9-2.6
	C88,13.2,89.3,12.6,90.9,12.6z"/>
<path class="st0" d="M113.9,9.9l-2.8,8.5c-0.5,1.5-0.9,3-1.5,4.8c-0.5-1.8-1-3.4-1.4-4.6l-2.9-8.7h-4.6l7,18c-0.9,2.6-1.4,3.6-3,3.6
	c-0.8,0-1.5-0.2-2.2-0.4l-0.1,3.8c0.8,0.3,2,0.4,2.8,0.4c3.1,0,4.7-1.7,6.1-5.9l7-19.5H113.9z"/>
<path class="st0" d="M128.2,27.9h4.3V13.1c0-0.9-0.1-4.3-0.1-6.5h0.1c0.7,2.4,1.6,5.5,2,6.7l4.7,14.5h4.8l4.7-14.4
	c0.4-1.2,1.2-3.9,2-6.8h0.1c-0.1,2.2-0.1,5.5-0.1,6.4v14.8h4.3V2.7h-7l-4.1,13c-0.8,2.5-1.7,5.7-2.2,7.6h0c-0.5-1.9-1.2-4.5-2.2-7.7
	l-4.1-13h-7V27.9z"/>
<path class="st0" d="M160.2,27.9h9c7.7,0,12.4-4.7,12.4-12.6c0-7.6-4.5-12.6-12.4-12.6h-9V27.9z M164.7,24.3v-18h4.1
	c2.8,0,5.2,0.7,6.4,2.5s1.6,3.6,1.6,6.5c0,2.8-0.5,4.9-1.7,6.5c-1.2,1.6-3.4,2.5-6.3,2.5H164.7z"/>
<path class="st0" d="M199.8,12.4c-1.5-1.9-3.9-3-6.8-3c-2.7,0-4.9,0.9-6.5,2.5c-1.6,1.7-2.4,4.1-2.4,6.9c0,2.9,0.8,5.3,2.4,7
	c1.6,1.6,3.7,2.5,6.5,2.5c4.6,0,7.6-2.1,8.5-6.2l-4.1-0.3c-0.4,2.2-1.8,3.3-4.4,3.3c-3,0-4.5-1.7-4.6-5h13.4
	C202,17,201.2,14.2,199.8,12.4z M193,12.6c1.6,0,2.7,0.4,3.5,1.4c0.6,0.8,0.9,1.8,1,2.8h-9c0.1-0.9,0.3-1.8,0.9-2.6
	C190.1,13.2,191.3,12.6,193,12.6z"/>
<path class="st0" d="M212,28.3c4,0,7.8-1.3,7.8-5.7c0-4.3-3.9-5-7.2-5.8c-2.3-0.5-4-0.9-4-2.3s1.5-2,3.1-2c2.3,0,3.6,1.1,3.8,3.3
	l3.9-0.6c-0.4-4.3-3.7-5.7-7.7-5.7c-3.6,0-7.1,1.6-7.1,5.4c0,3.6,3.1,4.7,6.3,5.5c2.7,0.7,4.9,1,4.9,2.6c0,1.5-1.3,2.4-3.7,2.4
	c-2.4,0-4-1.2-4-3.6l-4,0.5C204.1,26.5,207.7,28.3,212,28.3z"/>
</svg>
