<svg xmlns="http://www.w3.org/2000/svg" width="183.094" height="173.344" viewBox="0 0 183.094 173.344">
  <g id="excel_logo" transform="translate(-4.469 -9.063)">
    <rect id="rect4556" width="171.5" height="134.5" rx="3.375" transform="translate(13.5 28.026)" fill="none"/>
    <g id="use3985" transform="translate(0 87.031)">
      <path id="rect3991" d="M104.269,44.256h29.253V59.283H104.269Zm35.25,0h29.253v15H139.519Zm-35.25-21.781h29.253V38.22H104.269Zm35.25,0h29.253V38.22H139.519ZM104.269.725h29.253V16.47H104.269Zm35.25,0h29.253V16.47H139.519Zm-35.25-21.75h29.253V-5.28H104.269Zm35.25,0h29.253V-5.28H139.519Zm-35.25-21.75h29.253V-27.03H104.269Zm35.25,0h29.253V-27.03H139.519ZM103.25-60.75v5.969h78.281V72H103.25v6h77.781a6.532,6.532,0,0,0,6.531-6.531V-54.219a6.532,6.532,0,0,0-6.531-6.531Z" fill="#495057"/>
    </g>
    <path id="path3945" d="M108.844,9.063,4.469,27.625V163.563l104.313,18.844ZM75.469,65,60.531,95.719l15.344,30.906L62,125.813l-9.125-22.625-8.937,21.594-12.219-.687L46.063,95.719,32.438,67.031l13.219-.625,7.688,20.906,9.25-21.719Z" fill="#495057"/>
  </g>
</svg>
