<svg xmlns="http://www.w3.org/2000/svg" xmlns:xlink="http://www.w3.org/1999/xlink" version="1.1" x="0px" y="0px" viewBox="0 0 100 125" enable-background="new 0 0 100 100" xml:space="preserve"><path d="M25.785,57.846c0-1.493-1.215-2.708-2.708-2.708s-2.708,1.215-2.708,2.708s1.215,2.709,2.708,2.709  S25.785,59.339,25.785,57.846z M23.077,55.938c0.46,0,0.876,0.17,1.206,0.442c-0.138-0.042-0.293-0.014-0.401,0.094l-0.283,0.284  l-0.521,0.522l-0.521-0.522l-0.283-0.284c-0.109-0.109-0.264-0.137-0.401-0.094C22.201,56.109,22.617,55.938,23.077,55.938z   M23.077,59.754c-1.052,0-1.907-0.855-1.907-1.908c0-0.46,0.17-0.876,0.442-1.206c-0.042,0.138-0.014,0.293,0.094,0.401l1.088,1.088  c0.078,0.078,0.181,0.117,0.283,0.117s0.205-0.039,0.283-0.117l1.088-1.088c0.109-0.109,0.137-0.264,0.094-0.401  c0.272,0.33,0.442,0.746,0.442,1.206C24.984,58.898,24.129,59.754,23.077,59.754z M82.35,93.603l-3.104-0.333v-3.116V78.615v-1.538  V63.23v-1.138h0.369c0.221,0,0.4-0.18,0.4-0.4v-1.538c0-0.221-0.18-0.4-0.4-0.4h-0.369v-1.908c0-0.221-0.18-0.4-0.4-0.4h-0.753  v-6.522c0-0.221-0.18-0.4-0.4-0.4h-1.538c-0.221,0-0.4,0.18-0.4,0.4v0.369h-7.276v-0.754c0-0.221-0.18-0.4-0.4-0.4h-1.923H64.23  h-1.923h-1.923h-1.923h-1.924h-1.923h-1.923c-0.221,0-0.4,0.18-0.4,0.4v0.754H38.093v-0.369c0-0.221-0.18-0.4-0.4-0.4h-1.538  c-0.221,0-0.4,0.18-0.4,0.4v6.522H35c-0.221,0-0.4,0.18-0.4,0.4v1.908H34.23c-0.221,0-0.4,0.18-0.4,0.4v1.538  c0,0.221,0.18,0.4,0.4,0.4H34.6v1.138v13.847v1.538v6.346c-0.733-0.601-1.657-0.977-2.677-0.977c-1.204,0-2.287,0.509-3.061,1.318  v-33.61v-1.538V44v-3.077v-1.538v-3.077c0-0.162-0.098-0.308-0.247-0.369c-0.15-0.062-0.321-0.028-0.437,0.086l-1.422,1.421h-0.972  V34.77V33.23c0-0.037-0.012-0.071-0.021-0.105c-0.003-0.012,0-0.024-0.004-0.036l-2.308-6.153c-0.117-0.312-0.633-0.312-0.75,0  l-2.308,6.153c-0.004,0.012-0.001,0.024-0.004,0.036c-0.01,0.034-0.021,0.067-0.021,0.104v1.539v2.676h-0.973l-1.421-1.421  c-0.115-0.113-0.286-0.147-0.437-0.086c-0.149,0.062-0.247,0.207-0.247,0.369v3.077v1.538V44v6.154v1.538v35.385V94  c0,0.221,0.18,0.4,0.4,0.4h1.538h7.692h0.385h1.154h10.384h0.77h12.308h0.77h8.462h0.769H74.23H75h3.846h3.462  c0.213,0,0.388-0.167,0.399-0.379C82.719,93.809,82.561,93.625,82.35,93.603z M76.555,57.077v-1.539V53.23v-1.538v-0.369h0.737  v6.122h-0.369h-0.368V57.077z M68.477,52.093h7.276v0.737h-1.139h-1.538h-1.539H70h-1.522V52.093z M75.385,55.907  c-0.131,0-0.251,0.035-0.369,0.075v-0.444c0-0.203,0.165-0.368,0.369-0.368s0.369,0.165,0.369,0.368v0.444  C75.636,55.942,75.516,55.907,75.385,55.907z M75.754,57.077v0.368h-0.738v-0.368c0-0.204,0.165-0.369,0.369-0.369  S75.754,56.873,75.754,57.077z M75.385,54.369c-0.131,0-0.251,0.035-0.369,0.075v-0.813h0.738v0.813  C75.636,54.404,75.516,54.369,75.385,54.369z M73.846,55.907c-0.13,0-0.251,0.035-0.368,0.075v-0.444  c0-0.203,0.165-0.368,0.368-0.368c0.204,0,0.369,0.165,0.369,0.368v0.444C74.097,55.942,73.976,55.907,73.846,55.907z   M74.215,57.077v0.368h-0.369h-0.368v-0.368c0-0.204,0.165-0.369,0.368-0.369C74.05,56.708,74.215,56.873,74.215,57.077z   M73.846,54.369c-0.13,0-0.251,0.035-0.368,0.074v-0.813h0.737v0.813C74.097,54.404,73.976,54.369,73.846,54.369z M72.308,55.907  c-0.131,0-0.251,0.035-0.369,0.075v-0.444c0-0.203,0.165-0.368,0.369-0.368s0.369,0.165,0.369,0.368v0.444  C72.559,55.942,72.438,55.907,72.308,55.907z M72.677,57.077v0.368h-0.369h-0.369v-0.368c0-0.204,0.165-0.369,0.369-0.369  S72.677,56.873,72.677,57.077z M72.308,54.369c-0.131,0-0.251,0.035-0.369,0.075v-0.813h0.738v0.813  C72.559,54.404,72.438,54.369,72.308,54.369z M70.769,55.907c-0.131,0-0.251,0.035-0.369,0.075v-0.444  c0-0.203,0.165-0.368,0.369-0.368c0.203,0,0.368,0.165,0.368,0.368v0.444C71.02,55.942,70.9,55.907,70.769,55.907z M71.138,57.077  v0.368H70.4v-0.368c0-0.204,0.165-0.369,0.369-0.369C70.973,56.708,71.138,56.873,71.138,57.077z M70.769,54.369  c-0.131,0-0.251,0.035-0.369,0.075v-0.813h0.737v0.813C71.02,54.404,70.9,54.369,70.769,54.369z M69.23,55.907  c-0.13,0-0.251,0.035-0.368,0.075v-0.444c0-0.203,0.165-0.368,0.368-0.368c0.204,0,0.369,0.165,0.369,0.368v0.444  C69.482,55.942,69.361,55.907,69.23,55.907z M69.6,57.077v0.368H69.23h-0.368v-0.368c0-0.204,0.165-0.369,0.368-0.369  C69.434,56.708,69.6,56.873,69.6,57.077z M69.23,54.369c-0.13,0-0.251,0.035-0.368,0.074v-0.813H69.6v0.813  C69.482,54.404,69.361,54.369,69.23,54.369z M66.555,50.938h1.122v3.773h-1.122V50.938z M68.061,57.093v0.353h-0.369h-0.369v-0.353  H68.061z M66.555,55.513h1.122v0.779h-1.122V55.513z M65.785,57.093h0.369h0.368v0.353h-0.737V57.093z M64.631,50.938h1.123v3.773  h-1.123V50.938z M64.631,55.513h1.123v0.779h-1.123V55.513z M64.246,57.093h0.738v0.353h-0.369h-0.369V57.093z M62.708,53.23v-2.292  h1.122v3.773h-1.122V53.23z M62.708,55.513h1.122v0.779h-1.122V55.513z M62.708,57.093h0.737v0.353h-0.368h-0.369V57.093z   M60.785,50.938h1.122v2.292v1.481h-1.122V50.938z M60.785,55.513h1.122v0.779h-1.122V55.513z M61.907,57.093v0.353H61.17v-0.353  H61.907z M58.862,50.938h1.122v3.773h-1.122V50.938z M60.369,57.093v0.353H60h-0.369v-0.353H60.369z M58.862,55.513h1.122v0.779  h-1.122V55.513z M58.093,57.093h0.369h0.368v0.353h-0.368h-0.369V57.093z M56.938,50.938h1.123v3.773h-1.123V50.938z M56.938,55.513  h1.123v0.779h-1.123V55.513z M56.555,57.093h0.737v0.353h-0.737V57.093z M55.016,53.23v-2.292h1.122v3.773h-1.122V53.23z   M55.016,55.513h1.122v0.779h-1.122V55.513z M55.016,57.093h0.738v0.353h-0.369h-0.369V57.093z M53.093,50.938h1.122v2.292v1.481  h-1.122V50.938z M53.093,55.513h1.122v0.779h-1.122V55.513z M54.215,57.093v0.353h-0.369h-0.368v-0.353H54.215z M52.296,56.71  c0.01,0.206,0.174,0.371,0.381,0.379v0.356h-0.738v-0.368C51.938,56.877,52.097,56.717,52.296,56.71z M52.292,55.173v0.737  c-0.125,0.002-0.241,0.033-0.354,0.072v-0.444C51.938,55.34,52.096,55.182,52.292,55.173z M51.938,54.444v-0.813h0.354v0.741  C52.167,54.374,52.051,54.406,51.938,54.444z M38.093,52.093h14.199v0.737h-0.754H50h-1.538h-1.539h-1.538h-1.539h-1.538h-1.538  H39.23h-1.138V52.093z M50.769,55.907c-0.131,0-0.251,0.035-0.369,0.075v-0.444c0-0.203,0.165-0.368,0.369-0.368  c0.203,0,0.368,0.165,0.368,0.368v0.444C51.02,55.942,50.9,55.907,50.769,55.907z M51.138,57.077v0.368h-0.368H50.4v-0.368  c0-0.204,0.165-0.369,0.369-0.369C50.973,56.708,51.138,56.873,51.138,57.077z M50.769,54.369c-0.131,0-0.251,0.035-0.369,0.075  v-0.813h0.737v0.813C51.02,54.404,50.9,54.369,50.769,54.369z M49.23,55.907c-0.13,0-0.251,0.035-0.368,0.075v-0.444  c0-0.203,0.165-0.368,0.368-0.368c0.204,0,0.369,0.165,0.369,0.368v0.444C49.482,55.942,49.361,55.907,49.23,55.907z M49.6,57.077  v0.368H49.23h-0.368v-0.368c0-0.204,0.165-0.369,0.368-0.369C49.434,56.708,49.6,56.873,49.6,57.077z M49.23,54.369  c-0.13,0-0.251,0.035-0.368,0.074v-0.813H49.6v0.813C49.482,54.404,49.361,54.369,49.23,54.369z M47.692,55.907  c-0.131,0-0.251,0.035-0.369,0.075v-0.444c0-0.203,0.165-0.368,0.369-0.368s0.369,0.165,0.369,0.368v0.444  C47.944,55.942,47.823,55.907,47.692,55.907z M48.061,57.077v0.368h-0.738v-0.368c0-0.204,0.165-0.369,0.369-0.369  S48.061,56.873,48.061,57.077z M47.692,54.369c-0.131,0-0.251,0.035-0.369,0.075v-0.813h0.738v0.813  C47.944,54.404,47.823,54.369,47.692,54.369z M46.154,55.907c-0.131,0-0.251,0.035-0.369,0.075v-0.444  c0-0.203,0.165-0.368,0.369-0.368c0.203,0,0.368,0.165,0.368,0.368v0.444C46.405,55.942,46.285,55.907,46.154,55.907z   M46.522,57.077v0.368h-0.368h-0.369v-0.368c0-0.204,0.165-0.369,0.369-0.369C46.357,56.708,46.522,56.873,46.522,57.077z   M46.154,54.369c-0.131,0-0.251,0.035-0.369,0.075v-0.813h0.737v0.813C46.405,54.404,46.285,54.369,46.154,54.369z M44.615,55.907  c-0.131,0-0.251,0.035-0.369,0.075v-0.444c0-0.203,0.165-0.368,0.369-0.368s0.369,0.165,0.369,0.368v0.444  C44.867,55.942,44.746,55.907,44.615,55.907z M44.984,57.077v0.368h-0.369h-0.369v-0.368c0-0.204,0.165-0.369,0.369-0.369  S44.984,56.873,44.984,57.077z M44.615,54.369c-0.131,0-0.251,0.035-0.369,0.075v-0.813h0.738v0.813  C44.867,54.404,44.746,54.369,44.615,54.369z M43.077,55.907c-0.131,0-0.251,0.035-0.369,0.075v-0.444  c0-0.203,0.165-0.368,0.369-0.368c0.203,0,0.368,0.165,0.368,0.368v0.444C43.328,55.942,43.208,55.907,43.077,55.907z   M43.445,57.077v0.368h-0.737v-0.368c0-0.204,0.165-0.369,0.369-0.369C43.28,56.708,43.445,56.873,43.445,57.077z M43.077,54.369  c-0.131,0-0.251,0.035-0.369,0.075v-0.813h0.737v0.813C43.328,54.404,43.208,54.369,43.077,54.369z M41.538,55.907  c-0.13,0-0.251,0.035-0.368,0.075v-0.444c0-0.203,0.165-0.368,0.368-0.368c0.204,0,0.369,0.165,0.369,0.368v0.444  C41.79,55.942,41.669,55.907,41.538,55.907z M41.907,57.077v0.368h-0.369H41.17v-0.368c0-0.204,0.165-0.369,0.368-0.369  C41.742,56.708,41.907,56.873,41.907,57.077z M41.538,54.369c-0.13,0-0.251,0.035-0.368,0.074v-0.813h0.737v0.813  C41.79,54.404,41.669,54.369,41.538,54.369z M40,55.907c-0.131,0-0.251,0.035-0.369,0.075v-0.444c0-0.203,0.165-0.368,0.369-0.368  s0.369,0.165,0.369,0.368v0.444C40.251,55.942,40.131,55.907,40,55.907z M40.369,57.077v0.368H40h-0.369v-0.368  c0-0.204,0.165-0.369,0.369-0.369S40.369,56.873,40.369,57.077z M40,54.369c-0.131,0-0.251,0.035-0.369,0.075v-0.813h0.738v0.813  C40.251,54.404,40.131,54.369,40,54.369z M38.093,53.631h0.737v0.813c-0.117-0.04-0.238-0.074-0.368-0.074  c-0.131,0-0.251,0.035-0.369,0.075V53.631z M38.093,55.538c0-0.203,0.165-0.368,0.369-0.368c0.203,0,0.368,0.165,0.368,0.368v0.444  c-0.117-0.04-0.238-0.075-0.368-0.075c-0.131,0-0.251,0.035-0.369,0.075V55.538z M38.093,57.077c0-0.204,0.165-0.369,0.369-0.369  c0.203,0,0.368,0.165,0.368,0.369v0.368h-0.737V57.077z M36.555,51.323h0.737v0.369v1.538v2.308v1.539v0.368h-0.369h-0.368V51.323z   M35.4,58.246h0.754h0.368v0.369c0,0.221,0.18,0.4,0.4,0.4h0.77c0.221,0,0.4-0.18,0.4-0.4v-0.369h0.737v0.369  c0,0.221,0.18,0.4,0.4,0.4H40c0.221,0,0.4-0.18,0.4-0.4v-0.369h0.369h0.368v0.369c0,0.221,0.18,0.4,0.4,0.4h0.77  c0.221,0,0.4-0.18,0.4-0.4v-0.369h0.737v0.369c0,0.221,0.18,0.4,0.4,0.4h0.77c0.221,0,0.4-0.18,0.4-0.4v-0.369h0.369h0.369v0.369  c0,0.221,0.18,0.4,0.4,0.4h0.769c0.221,0,0.4-0.18,0.4-0.4v-0.369h0.738v0.369c0,0.221,0.18,0.4,0.4,0.4h0.769  c0.221,0,0.4-0.18,0.4-0.4v-0.369H50h0.369v0.369c0,0.221,0.18,0.4,0.4,0.4h0.769c0.221,0,0.4-0.18,0.4-0.4v-0.369h0.738v0.369  c0,0.221,0.18,0.4,0.4,0.4h0.769c0.221,0,0.4-0.18,0.4-0.4v-0.369h0.369h0.369v0.369c0,0.221,0.18,0.4,0.4,0.4h0.77  c0.221,0,0.4-0.18,0.4-0.4v-0.369h0.737v0.369c0,0.221,0.18,0.4,0.4,0.4h0.77c0.221,0,0.4-0.18,0.4-0.4v-0.369h0.368H59.6v0.369  c0,0.221,0.18,0.4,0.4,0.4h0.77c0.221,0,0.4-0.18,0.4-0.4v-0.369h0.737v0.369c0,0.221,0.18,0.4,0.4,0.4h0.77  c0.221,0,0.4-0.18,0.4-0.4v-0.369h0.368h0.369v0.369c0,0.221,0.18,0.4,0.4,0.4h0.77c0.221,0,0.4-0.18,0.4-0.4v-0.369h0.737v0.369  c0,0.221,0.18,0.4,0.4,0.4h0.77c0.221,0,0.4-0.18,0.4-0.4v-0.369h0.369h0.368v0.369c0,0.221,0.18,0.4,0.4,0.4H70  c0.221,0,0.4-0.18,0.4-0.4v-0.369h0.737v0.369c0,0.221,0.18,0.4,0.4,0.4h0.77c0.221,0,0.4-0.18,0.4-0.4v-0.369h0.369h0.368v0.369  c0,0.221,0.18,0.4,0.4,0.4h0.77c0.221,0,0.4-0.18,0.4-0.4v-0.369h0.738v0.369c0,0.221,0.18,0.4,0.4,0.4h0.769  c0.221,0,0.4-0.18,0.4-0.4v-0.369h0.369h0.753v1.508H35.4V58.246z M31.923,84.785c1.9,0,3.446,1.545,3.446,3.445  c0,0.115-0.023,0.223-0.034,0.335l-6.818-0.73C28.716,86.123,30.158,84.785,31.923,84.785z M27.323,38.012l0.738-0.739v1.712h-0.738  V38.012z M23.077,28.216l1.73,4.614h-3.461L23.077,28.216z M21.17,33.631h3.814v0.738H21.17V33.631z M21.17,35.17h3.814v2.275H21.17  V35.17z M19.631,38.246h1.139h4.615h1.138v0.738h-6.892V38.246z M18.093,37.273l0.737,0.738v0.973h-0.737V37.273z M18.093,39.785  h1.138h7.692h1.139v0.737h-9.969V39.785z M18.093,41.323h9.969V43.6h-1.139h-1.538h-1.539h-1.538h-1.538H19.23h-1.138V41.323z   M28.061,44.4v5.354h-0.738V44.4H28.061z M26.522,44.4v5.354h-0.737V44.4H26.522z M24.984,44.4v5.354h-0.738V44.4H24.984z   M23.445,44.4v5.354h-0.737V44.4H23.445z M21.907,44.4v5.354H21.17V44.4H21.907z M20.369,44.4v5.354h-0.738V44.4H20.369z   M18.093,44.4h0.737v5.354h-0.737V44.4z M18.093,50.555h1.138h1.539h1.538h1.538h1.539h1.538h1.139v0.737h-1.139H19.23h-1.138  V50.555z M28.061,52.093v34.394c-0.133,0.293-0.238,0.601-0.302,0.925c-0.128-0.192-0.279-0.366-0.436-0.534V52.093H28.061z   M24.23,86.323c1.105,0,2.079,0.532,2.71,1.343l-4.91-0.526C22.629,86.638,23.39,86.323,24.23,86.323z M21.013,87.031l-1.382-0.148  v-34.79h6.892v34.112c-0.662-0.427-1.447-0.682-2.292-0.682C22.938,85.522,21.792,86.116,21.013,87.031z M18.093,52.093h0.737  v34.704l-0.737-0.079V52.093z M74.6,93.6h-0.77H62.323h-0.769h-9.263h-0.77H40.016h-0.77H28.061h-0.354h-1.186h-6.892h-1.538v-6.077  L74.819,93.6H74.6z M40.577,88.246c0.859,0,1.616,0.438,2.063,1.102l-3.78-0.405C39.306,88.514,39.91,88.246,40.577,88.246z   M40.016,87.502v-0.024h0.243C40.177,87.486,40.095,87.488,40.016,87.502z M44.225,87.478h1.545h1.538h1.577h2.638v0.737h-8.858  c-0.491-0.408-1.098-0.671-1.768-0.737h1.751H44.225z M43.048,86.677v-1.03l0.776-0.345v1.375H43.048z M46.138,82.793v0.933  l-0.206-0.092c0,0-0.001,0-0.001,0c-0.049-0.022-0.103-0.035-0.161-0.035c-0.057,0-0.111,0.013-0.161,0.035c0,0-0.001,0-0.002,0  l-0.977,0.434v-1.276H46.138z M44.631,81.992v-0.669h1.507v0.669H44.631z M45.369,84.615v2.061h-0.744v-1.731L45.369,84.615z   M46.17,86.677v-2.061l0.737,0.328v1.734H46.17z M48.445,81.992h-1.507v-0.669h1.507V81.992z M48.484,85.644v1.033h-0.776v-1.378  L48.484,85.644z M48.445,82.793v1.959l-1.507-0.67v-1.289H48.445z M49.285,86.677V86l1.522,0.677H49.285z M51.522,89.016V90.3  l-7.92-0.848c-0.065-0.153-0.15-0.295-0.237-0.436H51.522z M42.247,86.677H40.73l1.517-0.674V86.677z M41.522,81.992h-1.507v-0.669  h1.507V81.992z M41.522,82.793v2.345h-1.507v-2.345H41.522z M53.903,90.555h7.619v0.737h-0.368c-0.045,0-0.087,0.012-0.128,0.026  L53.903,90.555z M64.955,87.478h1.577h1.545h1.538h1.577h2.638v0.737H62.323v-0.737H64.955z M63.039,86.677l1.516-0.674v0.674  H63.039z M66.907,82.793v1.29l-1.507,0.67v-1.959H66.907z M65.4,81.992v-0.669h1.507v0.669H65.4z M66.132,85.302v1.375h-0.776v-1.03  L66.132,85.302z M66.933,86.677v-1.73l0.744-0.331v2.061H66.933z M69.215,82.793v1.275l-0.976-0.434l-0.001,0  c-0.049-0.022-0.103-0.035-0.161-0.035c-0.057,0-0.111,0.013-0.161,0.035l-0.002,0l-0.207,0.092v-0.934H69.215z M67.708,81.992  v-0.669h1.507v0.669H67.708z M69.215,84.943v0.195v1.539h-0.737v-2.061L69.215,84.943z M70.016,86.677v-1.139v-0.239l0.776,0.345  v1.033H70.016z M73.83,82.793v2.345h-1.507v-2.345H73.83z M72.323,81.992v-0.669h1.507v0.669H72.323z M73.115,86.677h-1.522V86  L73.115,86.677z M74.6,92.093v0.679l-6.341-0.679H74.6z M73.83,89.016v2.276H62.323v-2.276H73.83z M78.445,93.184L75.4,92.858  v-1.166c0-0.221-0.18-0.4-0.4-0.4h-0.369v-0.737h3.814V93.184z M78.445,89.754h-3.814v-1.139v-1.138H75  c0.188,0,0.353-0.133,0.392-0.317s-0.057-0.372-0.229-0.448l-1.74-0.773h0.808h2.308c0.221,0,0.4-0.18,0.4-0.4v-3.146v-1.47  c0-0.221-0.18-0.4-0.4-0.4H74.23h-2.308c-0.221,0-0.4,0.18-0.4,0.4v1.47v2.702l-1.507-0.67v-2.032v-1.47c0-0.221-0.18-0.4-0.4-0.4  h-2.308H65c-0.221,0-0.4,0.18-0.4,0.4v1.47v2.716l-1.665,0.74c0.094-0.073,0.158-0.183,0.158-0.311v-3.146v-1.47  c0-0.221-0.18-0.4-0.4-0.4h-2.308h-2.308c-0.221,0-0.4,0.18-0.4,0.4v1.47v3.146c0,0.221,0.18,0.4,0.4,0.4h2.308h2.308  c0.026,0,0.049-0.01,0.073-0.015l-1.773,0.788c-0.173,0.076-0.269,0.264-0.229,0.448s0.203,0.317,0.392,0.317h0.368v1.138v1.139  h-9.199v-1.139v-1.138h0.369c0.188,0,0.353-0.133,0.392-0.317s-0.057-0.372-0.229-0.448l-1.773-0.788  c0.025,0.005,0.047,0.015,0.073,0.015h2.308h2.308c0.221,0,0.4-0.18,0.4-0.4v-3.146v-1.47c0-0.221-0.18-0.4-0.4-0.4h-2.308h-2.308  c-0.221,0-0.4,0.18-0.4,0.4v1.47v3.146c0,0.128,0.064,0.237,0.158,0.311l-1.666-0.741v-2.715v-1.47c0-0.221-0.18-0.4-0.4-0.4h-2.308  H44.23c-0.221,0-0.4,0.18-0.4,0.4v1.47v2.032l-1.507,0.669v-2.702v-1.47c0-0.221-0.18-0.4-0.4-0.4h-2.308h-2.308  c-0.221,0-0.4,0.18-0.4,0.4v1.47v3.146c0,0.221,0.18,0.4,0.4,0.4h2.308h0.809l-1.74,0.773c-0.173,0.076-0.269,0.264-0.229,0.448  s0.203,0.317,0.392,0.317h0.369v0.272c-0.529,0.243-0.982,0.619-1.316,1.09l-1.772-0.19c0.014-0.14,0.042-0.276,0.042-0.42  c0-0.902-0.288-1.736-0.77-2.425v-6.79h43.045V89.754z M76.138,82.793v2.345h-1.507v-2.345H76.138z M74.631,81.992v-0.669h1.507  v0.669H74.631z M60.785,81.992v-0.669h1.507v0.669H60.785z M62.292,82.793v2.345h-1.507v-2.345H62.292z M58.477,81.992v-0.669h1.507  v0.669H58.477z M59.984,82.793v2.345h-1.507v-2.345H59.984z M53.061,82.793v2.345h-1.507v-2.345H53.061z M51.555,81.992v-0.669  h1.507v0.669H51.555z M55.369,82.793v2.345h-1.507v-2.345H55.369z M53.862,81.992v-0.669h1.507v0.669H53.862z M37.708,81.992v-0.669  h1.507v0.669H37.708z M39.215,82.793v2.345h-1.507v-2.345H39.215z M78.445,78.215H35.4v-0.737h1.138h2.308h3.077h2.308h4.615h2.309  h4.615h2.308h4.615H65h4.615h2.308H75h2.308h1.138V78.215z M35.4,76.677V63.631h0.737v1.139v10.769v1.139H35.4z M38.445,65.17v9.968  h-1.507V65.17H38.445z M36.938,64.369v-0.738h1.507v0.738H36.938z M38.445,75.938v0.738h-1.507v-0.738H38.445z M39.246,76.677  v-1.139V64.77v-1.139h2.276v1.139v10.769v1.139H39.246z M43.83,65.17v0.368v9.231v0.368h-1.507V65.17H43.83z M42.323,64.369v-0.738  h1.507v0.738H42.323z M43.83,75.938v0.738h-1.507v-0.738H43.83z M46.938,71.223v-2.241h1.507v2.241H46.938z M48.445,72.023v2.346  h-1.507v-2.346H48.445z M46.938,68.181v-2.175h1.507v2.175H46.938z M46.538,65.138h-1.907V64.77v-1.139h3.814v1.139v0.368H46.538z   M46.138,66.006v2.175h-1.507v-2.175H46.138z M46.138,68.981v2.241h-1.507v-2.241H46.138z M46.138,72.023v2.346h-1.507v-2.346  H46.138z M46.538,75.17h1.907v0.368v1.139h-3.814v-1.139V75.17H46.538z M50.754,65.17v0.368v9.231v0.368h-1.508V74.77v-9.231V65.17  H50.754z M49.246,64.369v-0.738h1.508v0.738H49.246z M50.754,75.938v0.738h-1.508v-0.738H50.754z M53.862,71.223v-2.241h1.507v2.241  H53.862z M55.369,72.023v2.346h-1.507v-2.346H55.369z M53.862,68.181v-2.175h1.507v2.175H53.862z M53.462,65.138h-1.907V64.77  v-1.139h3.814v1.139v0.368H53.462z M53.061,66.006v2.175h-1.507v-2.175H53.061z M53.061,68.981v2.241h-1.507v-2.241H53.061z   M53.061,72.023v2.346h-1.507v-2.346H53.061z M53.462,75.17h1.907v0.368v1.139h-3.814v-1.139V75.17H53.462z M57.677,65.17v0.368  v9.231v0.368H56.17V74.77v-9.231V65.17H57.677z M56.17,64.369v-0.738h1.507v0.738H56.17z M57.677,75.938v0.738H56.17v-0.738H57.677z   M60.785,71.223v-2.241h1.507v2.241H60.785z M62.292,72.023v2.346h-1.507v-2.346H62.292z M60.785,68.181v-2.175h1.507v2.175H60.785z   M60.385,65.138h-1.907V64.77v-1.139h3.814v1.139v0.368H60.385z M59.984,66.006v2.175h-1.507v-2.175H59.984z M59.984,68.981v2.241  h-1.507v-2.241H59.984z M59.984,72.023v2.346h-1.507v-2.346H59.984z M60.385,75.17h1.907v0.368v1.139h-3.814v-1.139V75.17H60.385z   M64.6,65.17v0.368v9.231v0.368h-1.507V74.77v-9.231V65.17H64.6z M63.093,64.369v-0.738H64.6v0.738H63.093z M64.6,75.938v0.738  h-1.507v-0.738H64.6z M67.708,71.223v-2.241h1.507v2.241H67.708z M69.215,72.023v2.346h-1.507v-2.346H69.215z M67.708,68.181v-2.175  h1.507v2.175H67.708z M67.308,65.138H65.4V64.77v-1.139h3.814v1.139v0.368H67.308z M66.907,66.006v2.175H65.4v-2.175H66.907z   M66.907,68.981v2.241H65.4v-2.241H66.907z M66.907,72.023v2.346H65.4v-2.346H66.907z M67.308,75.17h1.907v0.368v1.139H65.4v-1.139  V75.17H67.308z M71.522,65.17v9.968h-1.507V74.77v-9.231V65.17H71.522z M70.016,64.369v-0.738h1.507v0.738H70.016z M71.522,75.938  v0.738h-1.507v-0.738H71.522z M72.323,76.677v-1.139V64.77v-1.139H74.6v1.139v10.769v1.139H72.323z M76.907,65.17v9.968H75.4V65.17  H76.907z M75.4,64.369v-0.738h1.507v0.738H75.4z M76.907,75.938v0.738H75.4v-0.738H76.907z M78.445,76.677h-0.737v-1.139V64.77  v-1.139h0.737V76.677z M78.445,62.83h-1.138H75h-3.077h-2.308H65h-2.308h-4.615h-2.308h-4.615h-2.309H44.23h-2.308h-3.077h-2.308  H35.4v-0.737h43.045V62.83z M79.215,61.292h-0.369H35h-0.369v-0.737H35h43.846h0.369V61.292z"/><text x="0" y="115" fill="#000000" font-size="5px" font-weight="bold" font-family="'Helvetica Neue', Helvetica, Arial-Unicode, Arial, Sans-serif">Created by NATAPON CHANTABUTR</text><text x="0" y="120" fill="#000000" font-size="5px" font-weight="bold" font-family="'Helvetica Neue', Helvetica, Arial-Unicode, Arial, Sans-serif">from the Noun Project</text></svg>