<svg xmlns="http://www.w3.org/2000/svg" viewBox="0 0 16 16"><path d="&#10; M3 1 v1 h1 v-1 Z M5 1 v1 h1 v-1 Z M7 1 v1 h1 v-1 Z M9 1 v1 h1 v-1 Z M11 1 v1 h1 v-1 Z M13 1 v1 h1 v-1 Z&#10;M1 3 v1 h1 v-1 Z M3 3 v1 h1 v-1 Z M5 3 v1 h1 v-1 Z M7 3 v1 h1 v-1 Z M9 3 v1 h1 v-1 Z M11 3 v1 h1 v-1 Z M13 3 v1 h1 v-1 Z&#10;M1 5 v1 h1 v-1 Z M3 5 v1 h1 v-1 Z M5 5 v1 h1 v-1 Z&#10;M1 7 v1 h1 v-1 Z M3 7 v1 h1 v-1 Z M5 7 v1 h1 v-1 Z M7 7 v1 h1 v-1 Z M9 7 v1 h1 v-1 Z M11 7 v1 h1 v-1 Z&#10; M3 9 v1 h1 v-1 Z M5 9 v1 h1 v-1 Z M7 9 v1 h1 v-1 Z M9 9 v1 h1 v-1 Z M11 9 v1 h1 v-1 Z M13 9 v1 h1 v-1 Z&#10;    M9 11 v1 h1 v-1 Z M11 11 v1 h1 v-1 Z M13 11 v1 h1 v-1 Z&#10;M1 13 v1 h1 v-1 Z M3 13 v1 h1 v-1 Z M5 13 v1 h1 v-1 Z M7 13 v1 h1 v-1 Z M9 13 v1 h1 v-1 Z M11 13 v1 h1 v-1 Z M13 13 v1 h1 v-1 Z&#10;M1 15 v1 h1 v-1 Z M3 15 v1 h1 v-1 Z M5 15 v1 h1 v-1 Z M7 15 v1 h1 v-1 Z M9 15 v1 h1 v-1 Z M11 15 v1 h1 v-1 Z&#10;"/></svg>