<svg xmlns="http://www.w3.org/2000/svg" width="13" height="15" viewBox="0 0 13 15"><defs><style>.a{fill:#0078d4;}</style></defs><path class="a" d="M3,1V2H4V1ZM5,1V2H6V1ZM7,1V2H8V1ZM9,1V2h1V1Zm2,0V2h1V1Zm2,0V2h1V1ZM1,3V4H2V3ZM3,3V4H4V3ZM5,3V4H6V3ZM7,3V4H8V3ZM9,3V4h1V3Zm2,0V4h1V3Zm2,0V4h1V3ZM1,5V6H2V5ZM3,5V6H4V5ZM5,5V6H6V5ZM1,7V8H2V7ZM3,7V8H4V7ZM5,7V8H6V7ZM7,7V8H8V7ZM9,7V8h1V7Zm2,0V8h1V7ZM3,9v1H4V9ZM5,9v1H6V9ZM7,9v1H8V9ZM9,9v1h1V9Zm2,0v1h1V9Zm2,0v1h1V9ZM9,11v1h1V11Zm2,0v1h1V11Zm2,0v1h1V11ZM1,13v1H2V13Zm2,0v1H4V13Zm2,0v1H6V13Zm2,0v1H8V13Zm2,0v1h1V13Zm2,0v1h1V13Zm2,0v1h1V13ZM1,15v1H2V15Zm2,0v1H4V15Zm2,0v1H6V15Zm2,0v1H8V15Zm2,0v1h1V15Zm2,0v1h1V15Z" transform="translate(-1 -1)"/></svg>