<svg xmlns="http://www.w3.org/2000/svg" xmlns:xlink="http://www.w3.org/1999/xlink" width="158" height="141.813" viewBox="0 0 158 141.813"><defs><style>.a{fill:#d8e4ff;}.b,.c,.f{fill:none;}.b{stroke:#3123ff;}.b,.c{stroke-linecap:round;stroke-width:3px;}.c{stroke:#5268f2;}.d{fill:#6a95e8;stroke:#262eff;stroke-width:6px;}.e{stroke:none;}.g{filter:url(#e);}.h{filter:url(#c);}.i{filter:url(#a);}</style><filter id="a" x="23.767" y="42.044" width="34.169" height="61.658" filterUnits="userSpaceOnUse"><feOffset dx="-3" dy="3" input="SourceAlpha"/><feGaussianBlur result="b"/><feFlood flood-color="#0076ff" flood-opacity="0.161"/><feComposite operator="in" in2="b"/><feComposite in="SourceGraphic"/></filter><filter id="c" x="65.142" y="0" width="45.322" height="82.646" filterUnits="userSpaceOnUse"><feOffset dx="-3" dy="3" input="SourceAlpha"/><feGaussianBlur result="d"/><feFlood flood-color="#0076ff" flood-opacity="0.161"/><feComposite operator="in" in2="d"/><feComposite in="SourceGraphic"/></filter><filter id="e" x="103.767" y="35.044" width="34.169" height="61.658" filterUnits="userSpaceOnUse"><feOffset dx="-3" dy="3" input="SourceAlpha"/><feGaussianBlur result="f"/><feFlood flood-color="#0076ff" flood-opacity="0.161"/><feComposite operator="in" in2="f"/><feComposite in="SourceGraphic"/></filter></defs><g transform="translate(-254 -1169.188)"><rect class="a" width="158" height="55" rx="27.5" transform="translate(254 1256)"/><g transform="translate(-7.662 26.571)"><path class="b" d="M1.806,0S-1.264,4.606.6,13.83,9.945,24,9.945,34.228s3.214,12.728,3.214,12.728" transform="matrix(0.719, 0.695, -0.695, 0.719, 303.963, 1225.712)"/><g transform="matrix(0.946, 0.326, -0.326, 0.946, 312.047, 1189.626)"><path class="c" d="M7.9,2.63A12.476,12.476,0,0,0,0,.006" transform="translate(2.265 9.806) rotate(-3)"/><path class="c" d="M7.9,2.63A12.476,12.476,0,0,0,0,.006" transform="translate(1.309 5.019) rotate(-3)"/><path class="c" d="M7.9,2.63A12.476,12.476,0,0,0,0,.006" transform="translate(0 0.413) rotate(-3)"/><path class="c" d="M7.9,2.63A12.476,12.476,0,0,0,0,.006" transform="translate(5.227 23.391) rotate(-3)"/><path class="c" d="M7.9,2.63A12.476,12.476,0,0,0,0,.006" transform="translate(7.186 38.119) rotate(-3)"/><path class="c" d="M7.9,2.63A12.476,12.476,0,0,0,0,.006" transform="translate(3.618 14.433) rotate(-3)"/><path class="c" d="M7.9,2.63A12.476,12.476,0,0,0,0,.006" transform="translate(7.268 43.259) rotate(-3)"/><path class="c" d="M7.9,2.63A12.476,12.476,0,0,0,0,.006" transform="translate(4.678 19.471) rotate(-7)"/><path class="c" d="M7.9,2.63A12.476,12.476,0,0,0,0,.006" transform="translate(7.092 32.984) rotate(-3)"/><path class="c" d="M7.9,2.63A12.476,12.476,0,0,0,0,.006" transform="translate(6.092 28.176) rotate(-3)"/></g><g transform="translate(303.977 1234.825) rotate(-179)"><path class="c" d="M7.9,0A12.475,12.475,0,0,1,0,2.623" transform="translate(2.403 33.453) rotate(3)"/><path class="c" d="M7.9,0A12.475,12.475,0,0,1,0,2.623" transform="translate(1.447 38.24) rotate(3)"/><path class="c" d="M7.9,0A12.475,12.475,0,0,1,0,2.623" transform="translate(0.138 42.846) rotate(3)"/><path class="c" d="M7.9,0A12.475,12.475,0,0,1,0,2.623" transform="translate(5.365 19.869) rotate(3)"/><path class="c" d="M7.9,0A12.475,12.475,0,0,1,0,2.623" transform="translate(7.324 5.14) rotate(3)"/><path class="c" d="M7.9,0A12.475,12.475,0,0,1,0,2.623" transform="translate(3.756 28.827) rotate(3)"/><path class="c" d="M7.9,0A12.475,12.475,0,0,1,0,2.623" transform="translate(7.406 0) rotate(3)"/><path class="c" d="M7.9,0A12.475,12.475,0,0,1,0,2.623" transform="translate(4.998 23.804) rotate(7)"/><path class="c" d="M7.9,0A12.475,12.475,0,0,1,0,2.623" transform="translate(7.23 10.276) rotate(3)"/><path class="c" d="M7.9,0A12.475,12.475,0,0,1,0,2.623" transform="translate(6.23 15.084) rotate(3)"/></g><g transform="matrix(0.985, 0.174, -0.174, 0.985, 298.103, 1184.661)"><g class="i" transform="matrix(0.98, -0.17, 0.17, 0.98, -43.19, -35.08)"><g class="d" transform="matrix(-0.17, 0.98, -0.98, -0.17, 57.94, 45.83)"><rect class="e" width="55.714" height="21.826" rx="10.913"/><rect class="f" x="3" y="3" width="49.714" height="15.826" rx="7.913"/></g></g></g><path class="b" d="M885.8,1610.623s3.069,4.606,1.2,13.83-9.344,10.167-9.344,20.4-3.214,12.728-3.214,12.728" transform="translate(-581.106 -391.726)"/></g><g transform="translate(27.601 -15.474)"><path class="b" d="M2.452,0S-1.716,6.254.816,18.779,13.5,32.583,13.5,46.474s4.364,17.282,4.364,17.282" transform="matrix(0.719, 0.695, -0.695, 0.719, 315.634, 1240.4)"/><g transform="matrix(0.946, 0.326, -0.326, 0.946, 326.611, 1191.403)"><path class="c" d="M10.723,3.57A16.939,16.939,0,0,0,0,.009" transform="translate(3.076 13.315) rotate(-3)"/><path class="c" d="M10.723,3.57A16.939,16.939,0,0,0,0,.009" transform="translate(1.778 6.815) rotate(-3)"/><path class="c" d="M10.723,3.57A16.939,16.939,0,0,0,0,.009" transform="translate(0 0.561) rotate(-3)"/><path class="c" d="M10.723,3.57A16.939,16.939,0,0,0,0,.009" transform="translate(7.097 31.76) rotate(-3)"/><path class="c" d="M10.723,3.57A16.939,16.939,0,0,0,0,.009" transform="translate(9.757 51.758) rotate(-3)"/><path class="c" d="M10.723,3.57A16.939,16.939,0,0,0,0,.009" transform="translate(4.913 19.597) rotate(-3)"/><path class="c" d="M10.723,3.57A16.939,16.939,0,0,0,0,.009" transform="translate(9.869 58.738) rotate(-3)"/><path class="c" d="M10.723,3.57A16.939,16.939,0,0,0,0,.009" transform="translate(6.351 26.438) rotate(-7)"/><path class="c" d="M10.723,3.57A16.939,16.939,0,0,0,0,.009" transform="translate(9.63 44.785) rotate(-3)"/><path class="c" d="M10.723,3.57A16.939,16.939,0,0,0,0,.009" transform="translate(8.272 38.257) rotate(-3)"/></g><g transform="translate(315.653 1252.774) rotate(-179)"><path class="c" d="M10.722,0A16.939,16.939,0,0,1,0,3.562" transform="translate(3.263 45.423) rotate(3)"/><path class="c" d="M10.722,0A16.939,16.939,0,0,1,0,3.562" transform="translate(1.965 51.923) rotate(3)"/><path class="c" d="M10.722,0A16.939,16.939,0,0,1,0,3.562" transform="translate(0.187 58.177) rotate(3)"/><path class="c" d="M10.722,0A16.939,16.939,0,0,1,0,3.562" transform="translate(7.284 26.978) rotate(3)"/><path class="c" d="M10.722,0A16.939,16.939,0,0,1,0,3.562" transform="translate(9.944 6.979) rotate(3)"/><path class="c" d="M10.722,0A16.939,16.939,0,0,1,0,3.562" transform="translate(5.1 39.141) rotate(3)"/><path class="c" d="M10.722,0A16.939,16.939,0,0,1,0,3.562" transform="translate(10.056 0) rotate(3)"/><path class="c" d="M10.722,0A16.939,16.939,0,0,1,0,3.562" transform="translate(6.786 32.322) rotate(7)"/><path class="c" d="M10.722,0A16.939,16.939,0,0,1,0,3.562" transform="translate(9.817 13.952) rotate(3)"/><path class="c" d="M10.722,0A16.939,16.939,0,0,1,0,3.562" transform="translate(8.459 20.481) rotate(3)"/></g><g transform="matrix(0.985, 0.174, -0.174, 0.985, 307.677, 1184.661)"><g class="h" transform="matrix(0.98, -0.17, 0.17, 0.98, -80.04, 14.11)"><g class="d" transform="matrix(-0.17, 0.98, -0.98, -0.17, 110.46, 5.15)"><rect class="e" width="75.649" height="29.636" rx="14.818"/><rect class="f" x="3" y="3" width="69.649" height="23.636" rx="11.818"/></g></g></g><path class="b" d="M889.866,1610.623s4.168,6.254,1.635,18.779-12.687,13.8-12.687,27.7-4.364,17.282-4.364,17.282" transform="translate(-573.234 -379.476)"/></g><g transform="translate(72.338 19.571)"><path class="b" d="M1.806,0S-1.264,4.606.6,13.83,9.945,24,9.945,34.228s3.214,12.728,3.214,12.728" transform="matrix(0.719, 0.695, -0.695, 0.719, 303.963, 1225.712)"/><g transform="matrix(0.946, 0.326, -0.326, 0.946, 312.047, 1189.626)"><path class="c" d="M7.9,2.63A12.476,12.476,0,0,0,0,.006" transform="translate(2.265 9.806) rotate(-3)"/><path class="c" d="M7.9,2.63A12.476,12.476,0,0,0,0,.006" transform="translate(1.309 5.019) rotate(-3)"/><path class="c" d="M7.9,2.63A12.476,12.476,0,0,0,0,.006" transform="translate(0 0.413) rotate(-3)"/><path class="c" d="M7.9,2.63A12.476,12.476,0,0,0,0,.006" transform="translate(5.227 23.391) rotate(-3)"/><path class="c" d="M7.9,2.63A12.476,12.476,0,0,0,0,.006" transform="translate(7.186 38.119) rotate(-3)"/><path class="c" d="M7.9,2.63A12.476,12.476,0,0,0,0,.006" transform="translate(3.618 14.433) rotate(-3)"/><path class="c" d="M7.9,2.63A12.476,12.476,0,0,0,0,.006" transform="translate(7.268 43.259) rotate(-3)"/><path class="c" d="M7.9,2.63A12.476,12.476,0,0,0,0,.006" transform="translate(4.678 19.471) rotate(-7)"/><path class="c" d="M7.9,2.63A12.476,12.476,0,0,0,0,.006" transform="translate(7.092 32.984) rotate(-3)"/><path class="c" d="M7.9,2.63A12.476,12.476,0,0,0,0,.006" transform="translate(6.092 28.176) rotate(-3)"/></g><g transform="translate(303.977 1234.825) rotate(-179)"><path class="c" d="M7.9,0A12.475,12.475,0,0,1,0,2.623" transform="translate(2.403 33.453) rotate(3)"/><path class="c" d="M7.9,0A12.475,12.475,0,0,1,0,2.623" transform="translate(1.447 38.24) rotate(3)"/><path class="c" d="M7.9,0A12.475,12.475,0,0,1,0,2.623" transform="translate(0.138 42.846) rotate(3)"/><path class="c" d="M7.9,0A12.475,12.475,0,0,1,0,2.623" transform="translate(5.365 19.869) rotate(3)"/><path class="c" d="M7.9,0A12.475,12.475,0,0,1,0,2.623" transform="translate(7.324 5.14) rotate(3)"/><path class="c" d="M7.9,0A12.475,12.475,0,0,1,0,2.623" transform="translate(3.756 28.827) rotate(3)"/><path class="c" d="M7.9,0A12.475,12.475,0,0,1,0,2.623" transform="translate(7.406 0) rotate(3)"/><path class="c" d="M7.9,0A12.475,12.475,0,0,1,0,2.623" transform="translate(4.998 23.804) rotate(7)"/><path class="c" d="M7.9,0A12.475,12.475,0,0,1,0,2.623" transform="translate(7.23 10.276) rotate(3)"/><path class="c" d="M7.9,0A12.475,12.475,0,0,1,0,2.623" transform="translate(6.23 15.084) rotate(3)"/></g><g transform="matrix(0.985, 0.174, -0.174, 0.985, 298.103, 1184.661)"><g class="g" transform="matrix(0.98, -0.17, 0.17, 0.98, -120.76, -14.29)"><g class="d" transform="matrix(-0.17, 0.98, -0.98, -0.17, 137.94, 38.83)"><rect class="e" width="55.714" height="21.826" rx="10.913"/><rect class="f" x="3" y="3" width="49.714" height="15.826" rx="7.913"/></g></g></g><path class="b" d="M885.8,1610.623s3.069,4.606,1.2,13.83-9.344,10.167-9.344,20.4-3.214,12.728-3.214,12.728" transform="translate(-581.106 -391.726)"/></g></g></svg>