<svg xmlns="http://www.w3.org/2000/svg" width="987.9" height="428.4" viewBox="0 0 987.9 428.4"><defs><style>.a{fill:#0d5aa5;}.b{fill:#b8daff;}.c{fill:#fff;}.d{fill:#1659a5;}</style></defs><g transform="translate(-2491.6 -4399)"><path class="a" d="M20,0H121V101a20,20,0,0,1-20,20H20A20,20,0,0,1,0,101V20A20,20,0,0,1,20,0Z" transform="translate(2896 4459)"/><path class="b" d="M0,0H60V40A20,20,0,0,1,40,60H20A20,20,0,0,1,0,40Z" transform="translate(2957 4641)"/><path class="a" d="M20,0h81a20,20,0,0,1,20,20v81a20,20,0,0,1-20,20H0V20A20,20,0,0,1,20,0Z" transform="translate(2957 4520)"/><path class="c" d="M0,0H60V60H0Z" transform="translate(2957 4520)"/><path class="b" d="M20,0H40A20,20,0,0,1,60,20V60H0V20A20,20,0,0,1,20,0Z" transform="translate(2957 4399)"/><path class="d" d="M54.8-70H42.2v26.8h-1C38.4-47.2,33.6-51,25-51,13.2-51,2.6-41,2.6-24.8S13.2,1.4,25,1.4c8.6,0,13.4-3.8,16.4-8.1h1V0H54.8Zm-26,29.8c7.8,0,13.6,5.6,13.6,15.4S36.6-9.4,28.8-9.4,15.2-15,15.2-24.8,21-40.2,28.8-40.2ZM65.4-37,77-33.1c.9-4.5,3.9-7.9,10.2-7.9,6.4,0,9.2,3.6,9.2,8.2V-30H82.8c-11.2,0-19.2,5.3-19.2,15.5s8,15.9,18.2,15.9c9.2,0,12.5-5,13.4-7.2h1.4V0h12V-31.9c0-12.4-8.2-19.1-21.2-19.1C74.5-51,67.8-44.5,65.4-37ZM76.2-14.8c0-3.4,2.8-5.8,7.5-5.8H96.4v.8c0,6.6-5,11-12,11C79-8.8,76.2-11.3,76.2-14.8ZM113-39.4h12.4v28.2c0,6.8,4.4,11.2,11,11.2h14V-10.2h-9.6c-1.8,0-2.8-1-2.8-3V-39.4h13.6V-49.6H138V-65H125.4v15.4H113ZM159.4-37,171-33.1c.9-4.5,3.9-7.9,10.2-7.9,6.4,0,9.2,3.6,9.2,8.2V-30H176.8c-11.2,0-19.2,5.3-19.2,15.5s8,15.9,18.2,15.9c9.2,0,12.5-5,13.4-7.2h1.4V0h12V-31.9c0-12.4-8.2-19.1-21.2-19.1C168.5-51,161.8-44.5,159.4-37Zm10.8,22.2c0-3.4,2.8-5.8,7.5-5.8h12.7v.8c0,6.6-5,11-12,11C173-8.8,170.2-11.3,170.2-14.8Zm38-34.8v10.2h12.6V0h12.6V-39.4h13V-49.6h-13v-7.2c0-2,1-3,2.8-3h8.6V-70h-13c-6.6,0-11,4.4-11,11.2v9.2Zm58,0H253.8V0h12.6V-28.8c0-7,4.6-10.4,11-10.4h7.4V-49.8h-5.2c-6.3,0-10.5,1.9-12.4,7.2h-1ZM290.1-37l11.6,3.9c.9-4.5,3.9-7.9,10.2-7.9,6.4,0,9.2,3.6,9.2,8.2V-30H307.5c-11.2,0-19.2,5.3-19.2,15.5s8,15.9,18.2,15.9c9.2,0,12.5-5,13.4-7.2h1.4V0h12V-31.9c0-12.4-8.2-19.1-21.2-19.1C299.2-51,292.5-44.5,290.1-37Zm10.8,22.2c0-3.4,2.8-5.8,7.5-5.8h12.7v.8c0,6.6-5,11-12,11C303.7-8.8,300.9-11.3,300.9-14.8Zm43-34.8V0h12.6V-29.6c0-6.8,3.2-10.6,9-10.6,5,0,8,2.8,8,8.2V0h12.6V-29.6c0-6.8,3.2-10.6,9-10.6,5,0,8,2.8,8,8.2V0h12.6V-32.6c0-12-7.4-17.8-16.6-17.8-8.1,0-11.8,3.6-14.2,7.8h-1c-2.3-4.7-6.4-7.8-13.6-7.8s-11.1,3.2-13,7h-1v-6.2Zm79.4,24.8c0,15.8,10.3,26.2,25.1,26.2,13.6,0,19.5-7.7,22.3-13L460.4-17c-1.7,3.8-4.6,7.6-11.6,7.6s-12.3-4.9-12.6-11.7h36.1v-4.3c0-15.2-9.5-25.6-24.1-25.6S423.3-40.6,423.3-24.8Zm13-5.7c.8-5.5,5-9.7,11.8-9.7,6.5,0,10.8,4,11.4,9.7Z" transform="translate(2489 4806)"/><path d="M5.6,20H18.2V-6.4h1c2.8,4,7.6,7.8,16.2,7.8,11.8,0,22.4-10,22.4-26.2S47.2-51,35.4-51C26.8-51,22-47.2,19-42.9H18v-6.7H5.6Zm26-29.4C23.8-9.4,18-15,18-24.8s5.8-15.4,13.6-15.4,13.6,5.6,13.6,15.4S39.4-9.4,31.6-9.4ZM78.6-70H66V0H78.6ZM89.2-37l11.6,3.9c.9-4.5,3.9-7.9,10.2-7.9,6.4,0,9.2,3.6,9.2,8.2V-30H106.6c-11.2,0-19.2,5.3-19.2,15.5s8,15.9,18.2,15.9c9.2,0,12.5-5,13.4-7.2h1.4V0h12V-31.9c0-12.4-8.2-19.1-21.2-19.1C98.3-51,91.6-44.5,89.2-37ZM100-14.8c0-3.4,2.8-5.8,7.5-5.8h12.7v.8c0,6.6-5,11-12,11C102.8-8.8,100-11.3,100-14.8Zm76.4-34.8L163.3-13.8h-1L149.2-49.6H135.6L156.2,3.2l-7,16.8h13.6L190-49.6Zm55.2,0v6.7h-1c-3-4.3-7.8-8.1-16.4-8.1-11.8,0-22.4,10-22.4,25.4S202.4-.2,214.2-.2c8.6,0,13.4-3.9,16.2-7.8h1v4.8c0,9.6-5.6,14-13.8,14S205.2,6.4,203.5.7L192.2,5.6c2.6,7.5,10.2,15.8,25.6,15.8,15.8,0,26.2-8.3,26.2-24.3V-49.6ZM218-11c-7.8,0-13.6-5.6-13.6-14.6s5.8-14.6,13.6-14.6,13.6,5.6,13.6,14.6S225.8-11,218-11Zm49.6-38.6H255.2V0h12.6V-28.8c0-7,4.6-10.4,11-10.4h7.4V-49.8H281c-6.3,0-10.5,1.9-12.4,7.2h-1Zm20.5,24.8c0,16.2,11.2,26.2,26,26.2s26-10,26-26.2S328.9-51,314.1-51,288.1-41,288.1-24.8Zm12.6,0c0-9.6,5.6-15.2,13.4-15.2s13.4,5.6,13.4,15.2S321.9-9.6,314.1-9.6,300.7-15.2,300.7-24.8ZM396.5,0V-49.6H383.9V-24c0,9.2-4.5,14.6-12.2,14.6-6.8,0-10.6-3.7-10.6-11.2v-29H348.5V-20C348.5-7.7,356.2.8,367.8.8c9.1,0,13.3-4,15.3-8.2h1V0Zm11.2-49.6V0h12.6V-25.6c0-9.2,4.5-14.6,12.2-14.6,6.8,0,10.6,3.7,10.6,11.2V0h12.6V-29.6c0-12.3-7.7-20.8-19.3-20.8-9.1,0-13.3,4-15.3,8.2h-1v-7.4ZM515.5-70H502.9v26.8h-1c-2.8-4-7.6-7.8-16.2-7.8-11.8,0-22.4,10-22.4,26.2S473.9,1.4,485.7,1.4c8.6,0,13.4-3.8,16.4-8.1h1V0h12.4Zm-26,29.8c7.8,0,13.6,5.6,13.6,15.4S497.3-9.4,489.5-9.4,475.9-15,475.9-24.8,481.7-40.2,489.5-40.2Z" transform="translate(2964 4806)"/></g></svg>