<svg xmlns="http://www.w3.org/2000/svg" width="996" height="442" viewBox="0 0 996 442"><defs><style>.a{fill:#0d5aa5;}.b{fill:#b8daff;}.c{fill:#fff;}.d{fill:#1659a5;font-size:100px;font-family:SpaceGrotesk-Bold, Space Grotesk;font-weight:700;}.e{fill:#000;}</style></defs><g transform="translate(-2489 -4399)"><path class="a" d="M20,0H121a0,0,0,0,1,0,0V101a20,20,0,0,1-20,20H20A20,20,0,0,1,0,101V20A20,20,0,0,1,20,0Z" transform="translate(2896 4459)"/><path class="b" d="M0,0H60a0,0,0,0,1,0,0V40A20,20,0,0,1,40,60H20A20,20,0,0,1,0,40V0A0,0,0,0,1,0,0Z" transform="translate(2957 4641)"/><path class="a" d="M20,0h81a20,20,0,0,1,20,20v81a20,20,0,0,1-20,20H0a0,0,0,0,1,0,0V20A20,20,0,0,1,20,0Z" transform="translate(2957 4520)"/><rect class="c" width="60" height="60" transform="translate(2957 4520)"/><path class="b" d="M20,0H40A20,20,0,0,1,60,20V60a0,0,0,0,1,0,0H0a0,0,0,0,1,0,0V20A20,20,0,0,1,20,0Z" transform="translate(2957 4399)"/><text class="d" transform="translate(2489 4806)"><tspan x="0" y="0">dataframe</tspan><tspan class="e" y="0">playground</tspan></text></g></svg>