<svg xmlns="http://www.w3.org/2000/svg" xmlns:xlink="http://www.w3.org/1999/xlink" width="143.974" height="135.9" viewBox="0 0 143.974 135.9"><defs><style>.a{fill:#d8e4ff;}.b{fill:#6a95e8;stroke:#262eff;}.b,.c{stroke-width:6px;}.c,.e{fill:none;}.c{stroke:rgba(38,46,255,0.41);stroke-linecap:round;}.d{stroke:none;}.f{filter:url(#k);}.g{filter:url(#i);}.h{filter:url(#g);}.i{filter:url(#e);}.j{filter:url(#c);}.k{filter:url(#a);}</style><filter id="a" x="59.792" y="32.228" width="57.002" height="56.005" filterUnits="userSpaceOnUse"><feOffset dx="-3" dy="3" input="SourceAlpha"/><feGaussianBlur result="b"/><feFlood flood-color="#0076ff" flood-opacity="0.161"/><feComposite operator="in" in2="b"/><feComposite in="SourceGraphic"/></filter><filter id="c" x="25.332" y="0" width="54.398" height="57.876" filterUnits="userSpaceOnUse"><feOffset dx="-3" dy="3" input="SourceAlpha"/><feGaussianBlur result="d"/><feFlood flood-color="#0076ff" flood-opacity="0.161"/><feComposite operator="in" in2="d"/><feComposite in="SourceGraphic"/></filter><filter id="e" x="12.124" y="4.199" width="77.044" height="40.356" filterUnits="userSpaceOnUse"><feOffset dx="-3" dy="3" input="SourceAlpha"/><feGaussianBlur result="f"/><feFlood flood-color="#0076ff" flood-opacity="0.161"/><feComposite operator="in" in2="f"/><feComposite in="SourceGraphic"/></filter><filter id="g" x="0" y="32.782" width="54.398" height="57.876" filterUnits="userSpaceOnUse"><feOffset dx="-3" dy="3" input="SourceAlpha"/><feGaussianBlur result="h"/><feFlood flood-color="#0076ff" flood-opacity="0.161"/><feComposite operator="in" in2="h"/><feComposite in="SourceGraphic"/></filter><filter id="i" x="40.749" y="19.561" width="48.487" height="88.602" filterUnits="userSpaceOnUse"><feOffset dx="-3" dy="3" input="SourceAlpha"/><feGaussianBlur result="j"/><feFlood flood-color="#0076ff" flood-opacity="0.161"/><feComposite operator="in" in2="j"/><feComposite in="SourceGraphic"/></filter><filter id="k" x="46.545" y="36.527" width="97.428" height="93.704" filterUnits="userSpaceOnUse"><feOffset dx="-3" dy="3" input="SourceAlpha"/><feGaussianBlur result="l"/><feFlood flood-color="#0076ff" flood-opacity="0.161"/><feComposite operator="in" in2="l"/><feComposite in="SourceGraphic"/></filter></defs><g transform="translate(-429.526 -571.1)"><rect class="a" width="122" height="126" rx="39" transform="translate(433 581)"/><g transform="translate(-37.676 -15.267)"><g transform="translate(529.994 638.899) rotate(-47)"><g class="k" transform="matrix(0.68, 0.73, -0.73, 0.68, -4.4, -81.75)"><g class="b" transform="translate(81.73 32.23) rotate(43)"><rect class="d" width="47.948" height="27.763" rx="13.882"/><rect class="e" x="3" y="3" width="41.948" height="21.763" rx="10.882"/></g></g><path class="c" d="M0,0H14.023" transform="translate(11.46 23.974)"/></g><g transform="matrix(-0.788, -0.616, 0.616, -0.788, 517.412, 641.243)"><g class="j" transform="matrix(-0.79, 0.62, -0.62, -0.79, 73.35, 12.33)"><g class="b" transform="matrix(0.62, -0.79, 0.79, 0.62, 28.33, 37.78)"><rect class="d" width="47.948" height="27.763" rx="13.882"/><rect class="e" x="3" y="3" width="41.948" height="21.763" rx="10.882"/></g></g><path class="c" d="M0,0H14.023" transform="translate(11.46 23.974)"/></g><g transform="translate(482.326 618.059) rotate(-82)"><g class="i" transform="matrix(0.14, 0.99, -0.99, 0.14, 29.28, -19.39)"><g class="b" transform="translate(18.99 4.2) rotate(8)"><rect class="d" width="70.87" height="27.763" rx="13.882"/><rect class="e" x="3" y="3" width="64.87" height="21.763" rx="10.882"/></g></g><path class="c" d="M0,0H14.023" transform="translate(11.46 35.435)"/></g><g transform="matrix(-0.788, -0.616, 0.616, -0.788, 492.08, 674.025)"><g class="h" transform="matrix(-0.79, 0.62, -0.62, -0.79, 73.57, 53.76)"><g class="b" transform="matrix(0.62, -0.79, 0.79, 0.62, 3, 70.57)"><rect class="d" width="47.948" height="27.763" rx="13.882"/><rect class="e" x="3" y="3" width="41.948" height="21.763" rx="10.882"/></g></g><path class="c" d="M0,0H14.023" transform="translate(11.46 23.974)"/></g><g transform="matrix(0.985, 0.174, -0.174, 0.985, 525.07, 605.928)"><g class="g" transform="matrix(0.98, -0.17, 0.17, 0.98, -60.39, -9.22)"><g class="b" transform="matrix(-0.17, 0.98, -0.98, -0.17, 89.24, 25.09)"><rect class="d" width="81.306" height="31.852" rx="15.926"/><rect class="e" x="3" y="3" width="75.306" height="25.852" rx="12.926"/></g></g><path class="c" d="M0,0H16.088" transform="translate(13.148 40.653)"/></g><g transform="translate(592.241 622.894) rotate(47)"><g class="f" transform="matrix(0.68, -0.73, 0.73, 0.68, -111.99, 66.54)"><g class="b" transform="translate(143.97 56.83) rotate(137)"><rect class="d" width="103.225" height="27.763" rx="13.882"/><rect class="e" x="3" y="3" width="97.225" height="21.763" rx="10.882"/></g></g><path class="c" d="M0,0H14.023" transform="translate(11.46 51.612)"/></g></g></g></svg>